<svg id="my-svg" width="100%" xmlns="http://www.w3.org/2000/svg" xmlns:xlink="http://www.w3.org/1999/xlink" class="flowchart" style="max-width: 1554.13px; background-color: transparent;" viewBox="0 -50 1554.1263427734375 1289" role="graphics-document document" aria-roledescription="flowchart-v2"><style>#my-svg{font-family:"trebuchet ms",verdana,arial,sans-serif;font-size:16px;fill:#333;}@keyframes edge-animation-frame{from{stroke-dashoffset:0;}}@keyframes dash{to{stroke-dashoffset:0;}}#my-svg .edge-animation-slow{stroke-dasharray:9,5!important;stroke-dashoffset:900;animation:dash 50s linear infinite;stroke-linecap:round;}#my-svg .edge-animation-fast{stroke-dasharray:9,5!important;stroke-dashoffset:900;animation:dash 20s linear infinite;stroke-linecap:round;}#my-svg .error-icon{fill:#552222;}#my-svg .error-text{fill:#552222;stroke:#552222;}#my-svg .edge-thickness-normal{stroke-width:1px;}#my-svg .edge-thickness-thick{stroke-width:3.5px;}#my-svg .edge-pattern-solid{stroke-dasharray:0;}#my-svg .edge-thickness-invisible{stroke-width:0;fill:none;}#my-svg .edge-pattern-dashed{stroke-dasharray:3;}#my-svg .edge-pattern-dotted{stroke-dasharray:2;}#my-svg .marker{fill:#333333;stroke:#333333;}#my-svg .marker.cross{stroke:#333333;}#my-svg svg{font-family:"trebuchet ms",verdana,arial,sans-serif;font-size:16px;}#my-svg p{margin:0;}#my-svg .label{font-family:"trebuchet ms",verdana,arial,sans-serif;color:#333;}#my-svg .cluster-label text{fill:#333;}#my-svg .cluster-label span{color:#333;}#my-svg .cluster-label span p{background-color:transparent;}#my-svg .label text,#my-svg span{fill:#333;color:#333;}#my-svg .node rect,#my-svg .node circle,#my-svg .node ellipse,#my-svg .node polygon,#my-svg .node path{fill:#ECECFF;stroke:#9370DB;stroke-width:1px;}#my-svg .rough-node .label text,#my-svg .node .label text,#my-svg .image-shape .label,#my-svg .icon-shape .label{text-anchor:middle;}#my-svg .node .katex path{fill:#000;stroke:#000;stroke-width:1px;}#my-svg .rough-node .label,#my-svg .node .label,#my-svg .image-shape .label,#my-svg .icon-shape .label{text-align:center;}#my-svg .node.clickable{cursor:pointer;}#my-svg .root .anchor path{fill:#333333!important;stroke-width:0;stroke:#333333;}#my-svg .arrowheadPath{fill:#333333;}#my-svg .edgePath .path{stroke:#333333;stroke-width:2.0px;}#my-svg .flowchart-link{stroke:#333333;fill:none;}#my-svg .edgeLabel{background-color:rgba(232,232,232, 0.8);text-align:center;}#my-svg .edgeLabel p{background-color:rgba(232,232,232, 0.8);}#my-svg .edgeLabel rect{opacity:0.5;background-color:rgba(232,232,232, 0.8);fill:rgba(232,232,232, 0.8);}#my-svg .labelBkg{background-color:rgba(232, 232, 232, 0.5);}#my-svg .cluster rect{fill:#ffffde;stroke:#aaaa33;stroke-width:1px;}#my-svg .cluster text{fill:#333;}#my-svg .cluster span{color:#333;}#my-svg div.mermaidTooltip{position:absolute;text-align:center;max-width:200px;padding:2px;font-family:"trebuchet ms",verdana,arial,sans-serif;font-size:12px;background:hsl(80, 100%, 96.2745098039%);border:1px solid #aaaa33;border-radius:2px;pointer-events:none;z-index:100;}#my-svg .flowchartTitleText{text-anchor:middle;font-size:18px;fill:#333;}#my-svg rect.text{fill:none;stroke-width:0;}#my-svg .icon-shape,#my-svg .image-shape{background-color:rgba(232,232,232, 0.8);text-align:center;}#my-svg .icon-shape p,#my-svg .image-shape p{background-color:rgba(232,232,232, 0.8);padding:2px;}#my-svg .icon-shape rect,#my-svg .image-shape rect{opacity:0.5;background-color:rgba(232,232,232, 0.8);fill:rgba(232,232,232, 0.8);}#my-svg .label-icon{display:inline-block;height:1em;overflow:visible;vertical-align:-0.125em;}#my-svg .node .label-icon path{fill:currentColor;stroke:revert;stroke-width:revert;}#my-svg :root{--mermaid-font-family:"trebuchet ms",verdana,arial,sans-serif;}#my-svg .stuck&gt;*{fill:#fde2e1!important;stroke:#c0392b!important;stroke-width:3px!important;color:#7b1c14!important;}#my-svg .stuck span{fill:#fde2e1!important;stroke:#c0392b!important;stroke-width:3px!important;color:#7b1c14!important;}#my-svg .stuck tspan{fill:#7b1c14!important;}#my-svg .blocked&gt;*{fill:#fff4e5!important;stroke:#c0392b!important;stroke-width:2px!important;color:#7b1c14!important;}#my-svg .blocked span{fill:#fff4e5!important;stroke:#c0392b!important;stroke-width:2px!important;color:#7b1c14!important;}#my-svg .blocked tspan{fill:#7b1c14!important;}#my-svg .exit&gt;*{fill:#e3f7e8!important;stroke:#1e8449!important;stroke-width:3px!important;color:#12592f!important;}#my-svg .exit span{fill:#e3f7e8!important;stroke:#1e8449!important;stroke-width:3px!important;color:#12592f!important;}#my-svg .exit tspan{fill:#12592f!important;}#my-svg .state&gt;*{fill:#eef2f7!important;stroke:#5b6b7f!important;stroke-width:1px!important;color:#1f2a37!important;}#my-svg .state span{fill:#eef2f7!important;stroke:#5b6b7f!important;stroke-width:1px!important;color:#1f2a37!important;}#my-svg .state tspan{fill:#1f2a37!important;}</style><g><marker id="my-svg_flowchart-v2-pointEnd" class="marker flowchart-v2" viewBox="0 0 10 10" refX="5" refY="5" markerUnits="userSpaceOnUse" markerWidth="8" markerHeight="8" orient="auto"><path d="M 0 0 L 10 5 L 0 10 z" class="arrowMarkerPath" style="stroke-width: 1; stroke-dasharray: 1, 0;"/></marker><marker id="my-svg_flowchart-v2-pointStart" class="marker flowchart-v2" viewBox="0 0 10 10" refX="4.5" refY="5" markerUnits="userSpaceOnUse" markerWidth="8" markerHeight="8" orient="auto"><path d="M 0 5 L 10 10 L 10 0 z" class="arrowMarkerPath" style="stroke-width: 1; stroke-dasharray: 1, 0;"/></marker><marker id="my-svg_flowchart-v2-circleEnd" class="marker flowchart-v2" viewBox="0 0 10 10" refX="11" refY="5" markerUnits="userSpaceOnUse" markerWidth="11" markerHeight="11" orient="auto"><circle cx="5" cy="5" r="5" class="arrowMarkerPath" style="stroke-width: 1; stroke-dasharray: 1, 0;"/></marker><marker id="my-svg_flowchart-v2-circleStart" class="marker flowchart-v2" viewBox="0 0 10 10" refX="-1" refY="5" markerUnits="userSpaceOnUse" markerWidth="11" markerHeight="11" orient="auto"><circle cx="5" cy="5" r="5" class="arrowMarkerPath" style="stroke-width: 1; stroke-dasharray: 1, 0;"/></marker><marker id="my-svg_flowchart-v2-crossEnd" class="marker cross flowchart-v2" viewBox="0 0 11 11" refX="12" refY="5.2" markerUnits="userSpaceOnUse" markerWidth="11" markerHeight="11" orient="auto"><path d="M 1,1 l 9,9 M 10,1 l -9,9" class="arrowMarkerPath" style="stroke-width: 2; stroke-dasharray: 1, 0;"/></marker><marker id="my-svg_flowchart-v2-crossStart" class="marker cross flowchart-v2" viewBox="0 0 11 11" refX="-1" refY="5.2" markerUnits="userSpaceOnUse" markerWidth="11" markerHeight="11" orient="auto"><path d="M 1,1 l 9,9 M 10,1 l -9,9" class="arrowMarkerPath" style="stroke-width: 2; stroke-dasharray: 1, 0;"/></marker><g class="root"><g class="clusters"/><g class="edgePaths"><path d="M1200.372,62L1193.883,68.167C1187.394,74.333,1174.417,86.667,1167.928,98.333C1161.439,110,1161.439,121,1161.439,126.5L1161.439,132" id="L_VR_AC_0" class="edge-thickness-normal edge-pattern-solid edge-thickness-normal edge-pattern-solid flowchart-link" style=";" data-edge="true" data-et="edge" data-id="L_VR_AC_0" data-points="W3sieCI6MTIwMC4zNzE5MTAwOTUyMTQ4LCJ5Ijo2Mn0seyJ4IjoxMTYxLjQzODgwNDYyNjQ2NDgsInkiOjk5fSx7IngiOjExNjEuNDM4ODA0NjI2NDY0OCwieSI6MTM2fV0=" marker-end="url(#my-svg_flowchart-v2-pointEnd)"/><path d="M1061.751,182.297L1023.262,189.748C984.773,197.198,907.796,212.099,869.307,225.05C830.818,238,830.818,249,830.818,254.5L830.818,260" id="L_AC_OE_0" class="edge-thickness-normal edge-pattern-solid edge-thickness-normal edge-pattern-solid flowchart-link" style=";" data-edge="true" data-et="edge" data-id="L_AC_OE_0" data-points="W3sieCI6MTA2MS43NTEzMDQ2MjY0NjQ4LCJ5IjoxODIuMjk3MDE0Mzc4NzE0M30seyJ4Ijo4MzAuODE3NzEwODc2NDY0OCwieSI6MjI3fSx7IngiOjgzMC44MTc3MTA4NzY0NjQ4LCJ5IjoyNjR9XQ==" marker-end="url(#my-svg_flowchart-v2-pointEnd)"/><path d="M722.138,305.35L659.467,313.625C596.797,321.9,471.456,338.45,408.785,352.225C346.115,366,346.115,377,346.115,382.5L346.115,388" id="L_OE_ACL_0" class="edge-thickness-normal edge-pattern-solid edge-thickness-normal edge-pattern-solid flowchart-link" style=";" data-edge="true" data-et="edge" data-id="L_OE_ACL_0" data-points="W3sieCI6NzIyLjEzODAyMzM3NjQ2NDgsInkiOjMwNS4zNTAwMjA5NTM1NDc2fSx7IngiOjM0Ni4xMTQ1ODU4NzY0NjQ4NCwieSI6MzU1fSx7IngiOjM0Ni4xMTQ1ODU4NzY0NjQ4NCwieSI6MzkyfV0=" marker-end="url(#my-svg_flowchart-v2-pointEnd)"/><path d="M273.84,446L241.271,458.167C208.703,470.333,143.566,494.667,142.877,518.766C142.188,542.866,205.946,566.732,237.826,578.665L269.705,590.598" id="L_ACL_CS_0" class="edge-thickness-normal edge-pattern-solid edge-thickness-normal edge-pattern-solid flowchart-link" style=";" data-edge="true" data-et="edge" data-id="L_ACL_CS_0" data-points="W3sieCI6MjczLjgzOTY2MzMxNDgxOTM1LCJ5Ijo0NDZ9LHsieCI6NzguNDI5Njg3NSwieSI6NTE5fSx7IngiOjI3My40NTA4OTg0Mzc1LCJ5Ijo1OTJ9XQ==" marker-end="url(#my-svg_flowchart-v2-pointEnd)"/><path d="M345.582,646L345.582,654.167C345.582,662.333,345.582,678.667,365.632,694.755C385.682,710.843,425.782,726.687,445.831,734.608L465.881,742.53" id="L_CS_CIP_0" class="edge-thickness-normal edge-pattern-solid edge-thickness-normal edge-pattern-solid flowchart-link" style=";" data-edge="true" data-et="edge" data-id="L_CS_CIP_0" data-points="W3sieCI6MzQ1LjU4MjAzMTI1LCJ5Ijo2NDZ9LHsieCI6MzQ1LjU4MjAzMTI1LCJ5Ijo2OTV9LHsieCI6NDY5LjYwMTUyOTg3NDI5OTcsInkiOjc0NH1d" marker-end="url(#my-svg_flowchart-v2-pointEnd)"/><path d="M317.237,592L304.465,579.833C291.692,567.667,266.147,543.333,265.728,519.459C265.309,495.584,290.016,472.168,302.369,460.46L314.723,448.752" id="L_CS_ACL_0" class="edge-thickness-normal edge-pattern-solid edge-thickness-normal edge-pattern-solid flowchart-link" style=";" data-edge="true" data-et="edge" data-id="L_CS_ACL_0" data-points="W3sieCI6MzE3LjIzNzMwNDY4NzUsInkiOjU5Mn0seyJ4IjoyNDAuNjAxNTYyNSwieSI6NTE5fSx7IngiOjMxNy42MjYwNjk1NjQ4MTkzLCJ5Ijo0NDZ9XQ==" marker-end="url(#my-svg_flowchart-v2-pointEnd)"/><path d="M395.957,592L418.657,579.833C441.357,567.667,486.758,543.333,487.41,519.316C488.062,495.298,443.965,471.596,421.917,459.745L399.869,447.894" id="L_CS_ACL_2" class="edge-thickness-normal edge-pattern-dotted edge-thickness-normal edge-pattern-solid flowchart-link" style="stroke:#8a8a8a;stroke-width:1.5px;color:#6b6b6b;fill:none;;;stroke:#8a8a8a;stroke-width:1.5px;color:#6b6b6b;fill:none" data-edge="true" data-et="edge" data-id="L_CS_ACL_2" data-points="W3sieCI6Mzk1Ljk1NzQyMjU2MTY0NTUsInkiOjU5Mn0seyJ4Ijo1MzIuMTU3NTU0NjI2NDY0OCwieSI6NTE5fSx7IngiOjM5Ni4zNDYxODc0Mzg5NjQ5LCJ5Ijo0NDZ9XQ==" marker-end="url(#my-svg_flowchart-v2-pointEnd__8a8a8a)"/><path d="M620.515,744L645.492,735.833C670.469,727.667,720.423,711.333,745.399,690.5C770.376,669.667,770.376,644.333,770.376,615C770.376,585.667,770.376,552.333,770.376,519C770.376,485.667,770.376,452.333,770.376,425C770.376,397.667,770.376,376.333,775.742,359.985C781.108,343.636,791.84,332.272,797.207,326.59L802.573,320.908" id="L_CIP_OE_0" class="edge-thickness-normal edge-pattern-dotted edge-thickness-normal edge-pattern-solid flowchart-link" style="stroke:#c0392b;stroke-width:2px;color:#7b1c14;fill:none;;;stroke:#c0392b;stroke-width:2px;color:#7b1c14;fill:none" data-edge="true" data-et="edge" data-id="L_CIP_OE_0" data-points="W3sieCI6NjIwLjUxNTI4NDg4OTYyMjgsInkiOjc0NH0seyJ4Ijo3NzAuMzc2MzA0NjI2NDY0OCwieSI6Njk1fSx7IngiOjc3MC4zNzYzMDQ2MjY0NjQ4LCJ5Ijo2MTl9LHsieCI6NzcwLjM3NjMwNDYyNjQ2NDgsInkiOjUxOX0seyJ4Ijo3NzAuMzc2MzA0NjI2NDY0OCwieSI6NDE5fSx7IngiOjc3MC4zNzYzMDQ2MjY0NjQ4LCJ5IjozNTV9LHsieCI6ODA1LjMxODk5MjYxNDc0NjEsInkiOjMxOH1d" marker-end="url(#my-svg_flowchart-v2-pointEnd__c0392b)"/><path d="M537.998,798L538.017,806.167C538.035,814.333,538.071,830.667,538.165,846.417C538.26,862.167,538.413,877.333,538.49,884.917L538.566,892.5" id="L_CIP_RC1_0" class="edge-thickness-normal edge-pattern-solid edge-thickness-normal edge-pattern-solid flowchart-link" style="stroke:#c0392b;stroke-width:2px;color:#7b1c14;fill:none;;;stroke:#c0392b;stroke-width:2px;color:#7b1c14;fill:none" data-edge="true" data-et="edge" data-id="L_CIP_RC1_0" data-points="W3sieCI6NTM3Ljk5ODQ3NzczNTAxNzQsInkiOjc5OH0seyJ4Ijo1MzguMTA2NzczMzc2NDY0OCwieSI6ODQ3fSx7IngiOjUzOC42MDY3NzMzNzY0NjQ4LCJ5Ijo4OTYuNTAwMDAwMDAwMDAwMn1d" marker-end="url(#my-svg_flowchart-v2-pointEnd__c0392b)"/><path d="M428.221,798L395.035,806.167C361.849,814.333,295.477,830.667,262.29,859.083C229.104,887.5,229.104,928,229.104,948.25L229.104,968.5" id="L_CIP_MR_0" class="edge-thickness-normal edge-pattern-solid edge-thickness-normal edge-pattern-solid flowchart-link" style=";" data-edge="true" data-et="edge" data-id="L_CIP_MR_0" data-points="W3sieCI6NDI4LjIyMTIzNDk3NDEwODI2LCJ5Ijo3OTh9LHsieCI6MjI5LjEwNDE2NDEyMzUzNTE2LCJ5Ijo4NDd9LHsieCI6MjI5LjEwNDE2NDEyMzUzNTE2LCJ5Ijo5NzIuNX1d" marker-end="url(#my-svg_flowchart-v2-pointEnd)"/><path d="M638.699,798L669.176,806.167C699.653,814.333,760.606,830.667,829.295,856.8C897.983,882.933,974.407,918.865,1012.618,936.832L1050.83,954.798" id="L_CIP_RC2_0" class="edge-thickness-thick edge-pattern-solid edge-thickness-normal edge-pattern-solid flowchart-link" style="stroke:#1e8449;stroke-width:3px;color:#12592f;fill:none;;;stroke:#1e8449;stroke-width:3px;color:#12592f;fill:none" data-edge="true" data-et="edge" data-id="L_CIP_RC2_0" data-points="W3sieCI6NjM4LjY5ODkzMDAzNzY0OSwieSI6Nzk4fSx7IngiOjgyMS41NTk4OTgzNzY0NjQ4LCJ5Ijo4NDd9LHsieCI6MTA1NC40NDk5MDg2MjIzNjU1LCJ5Ijo5NTYuNDk5OTk5OTk5OTk5NX1d" marker-end="url(#my-svg_flowchart-v2-pointEnd__1e8449)"/><path d="M456.957,633.203L537.724,643.502C618.491,653.802,780.026,674.401,860.793,697.367C941.56,720.333,941.56,745.667,941.56,771C941.56,796.333,941.56,821.667,965.545,852.185C989.53,882.704,1037.5,918.408,1061.486,936.26L1085.471,954.112" id="L_CS_RC2_0" class="edge-thickness-thick edge-pattern-solid edge-thickness-normal edge-pattern-solid flowchart-link" style="stroke:#1e8449;stroke-width:3px;color:#12592f;fill:none;;;stroke:#1e8449;stroke-width:3px;color:#12592f;fill:none" data-edge="true" data-et="edge" data-id="L_CS_RC2_0" data-points="W3sieCI6NDU2Ljk1NzAzMTI1LCJ5Ijo2MzMuMjAyNzA4NjM1NDkzNH0seyJ4Ijo5NDEuNTU5ODk4Mzc2NDY0OCwieSI6Njk1fSx7IngiOjk0MS41NTk4OTgzNzY0NjQ4LCJ5Ijo3NzF9LHsieCI6OTQxLjU1OTg5ODM3NjQ2NDgsInkiOjg0N30seyJ4IjoxMDg4LjY3OTQxNjgxOTA4NywieSI6OTU2LjQ5OTk5OTk5OTk5OTV9XQ==" marker-end="url(#my-svg_flowchart-v2-pointEnd__1e8449)"/><path d="M450.458,433.584L552.309,447.82C654.159,462.056,857.859,490.528,959.71,521.431C1061.56,552.333,1061.56,585.667,1061.56,615C1061.56,644.333,1061.56,669.667,1061.56,695C1061.56,720.333,1061.56,745.667,1061.56,771C1061.56,796.333,1061.56,821.667,1071.459,852.002C1081.358,882.337,1101.156,917.674,1111.055,935.342L1120.954,953.01" id="L_ACL_RC2_0" class="edge-thickness-thick edge-pattern-solid edge-thickness-normal edge-pattern-solid flowchart-link" style="stroke:#1e8449;stroke-width:3px;color:#12592f;fill:none;;;stroke:#1e8449;stroke-width:3px;color:#12592f;fill:none" data-edge="true" data-et="edge" data-id="L_ACL_RC2_0" data-points="W3sieCI6NDUwLjQ1ODMzNTg3NjQ2NDg0LCJ5Ijo0MzMuNTg0NDQ4MDYwMTAyNDN9LHsieCI6MTA2MS41NTk4OTgzNzY0NjQ4LCJ5Ijo1MTl9LHsieCI6MTA2MS41NTk4OTgzNzY0NjQ4LCJ5Ijo2MTl9LHsieCI6MTA2MS41NTk4OTgzNzY0NjQ4LCJ5Ijo2OTV9LHsieCI6MTA2MS41NTk4OTgzNzY0NjQ4LCJ5Ijo3NzF9LHsieCI6MTA2MS41NTk4OTgzNzY0NjQ4LCJ5Ijo4NDd9LHsieCI6MTEyMi45MDg5MjUwMTU4MDg4LCJ5Ijo5NTYuNDk5OTk5OTk5OTk5NX1d" marker-end="url(#my-svg_flowchart-v2-pointEnd__1e8449)"/><path d="M1157.138,956.5L1161.209,938.25C1165.279,920,1173.419,883.5,1177.49,852.583C1181.56,821.667,1181.56,796.333,1181.56,771C1181.56,745.667,1181.56,720.333,1181.56,695C1181.56,669.667,1181.56,644.333,1181.56,615C1181.56,585.667,1181.56,552.333,1181.56,519C1181.56,485.667,1181.56,452.333,1181.56,425C1181.56,397.667,1181.56,376.333,1141.872,358.425C1102.184,340.516,1022.808,326.033,983.12,318.791L943.432,311.549" id="L_RC2_OE_0" class="edge-thickness-thick edge-pattern-solid edge-thickness-normal edge-pattern-solid flowchart-link" style="stroke:#1e8449;stroke-width:3px;color:#12592f;fill:none;;;stroke:#1e8449;stroke-width:3px;color:#12592f;fill:none" data-edge="true" data-et="edge" data-id="L_RC2_OE_0" data-points="W3sieCI6MTE1Ny4xMzg0MzMyMTI1MzAxLCJ5Ijo5NTYuNTAwMDAwMDAwMDAxMX0seyJ4IjoxMTgxLjU1OTg5ODM3NjQ2NDgsInkiOjg0N30seyJ4IjoxMTgxLjU1OTg5ODM3NjQ2NDgsInkiOjc3MX0seyJ4IjoxMTgxLjU1OTg5ODM3NjQ2NDgsInkiOjY5NX0seyJ4IjoxMTgxLjU1OTg5ODM3NjQ2NDgsInkiOjYxOX0seyJ4IjoxMTgxLjU1OTg5ODM3NjQ2NDgsInkiOjUxOX0seyJ4IjoxMTgxLjU1OTg5ODM3NjQ2NDgsInkiOjQxOX0seyJ4IjoxMTgxLjU1OTg5ODM3NjQ2NDgsInkiOjM1NX0seyJ4Ijo5MzkuNDk3Mzk4Mzc2NDY0OCwieSI6MzEwLjgzMDgwNTIxMjE2MTd9XQ==" marker-end="url(#my-svg_flowchart-v2-pointEnd__1e8449)"/><path d="M1178.231,956.5L1191.11,938.25C1203.989,920,1229.747,883.5,1242.626,852.583C1255.505,821.667,1255.505,796.333,1255.505,771C1255.505,745.667,1255.505,720.333,1255.505,695C1255.505,669.667,1255.505,644.333,1255.505,615C1255.505,585.667,1255.505,552.333,1255.505,519C1255.505,485.667,1255.505,452.333,1255.505,425C1255.505,397.667,1255.505,376.333,1255.505,355C1255.505,333.667,1255.505,312.333,1255.505,291C1255.505,269.667,1255.505,248.333,1246.993,231.875C1238.48,215.417,1221.455,203.833,1212.943,198.042L1204.43,192.25" id="L_RC2_AC_0" class="edge-thickness-thick edge-pattern-solid edge-thickness-normal edge-pattern-solid flowchart-link" style="stroke:#1e8449;stroke-width:3px;color:#12592f;fill:none;;;stroke:#1e8449;stroke-width:3px;color:#12592f;fill:none" data-edge="true" data-et="edge" data-id="L_RC2_AC_0" data-points="W3sieCI6MTE3OC4yMzEwMzA1NDg1OTUsInkiOjk1Ni41MDAwMDAwMDAwMDExfSx7IngiOjEyNTUuNTA1MjEwODc2NDY0OCwieSI6ODQ3fSx7IngiOjEyNTUuNTA1MjEwODc2NDY0OCwieSI6NzcxfSx7IngiOjEyNTUuNTA1MjEwODc2NDY0OCwieSI6Njk1fSx7IngiOjEyNTUuNTA1MjEwODc2NDY0OCwieSI6NjE5fSx7IngiOjEyNTUuNTA1MjEwODc2NDY0OCwieSI6NTE5fSx7IngiOjEyNTUuNTA1MjEwODc2NDY0OCwieSI6NDE5fSx7IngiOjEyNTUuNTA1MjEwODc2NDY0OCwieSI6MzU1fSx7IngiOjEyNTUuNTA1MjEwODc2NDY0OCwieSI6MjkxfSx7IngiOjEyNTUuNTA1MjEwODc2NDY0OCwieSI6MjI3fSx7IngiOjEyMDEuMTIzMDY5NzYzMTgzNiwieSI6MTkwfV0=" marker-end="url(#my-svg_flowchart-v2-pointEnd__1e8449)"/><path d="M1147.193,1043.5L1147.109,1059.583C1147.026,1075.667,1146.859,1107.833,1146.776,1129.417C1146.693,1151,1146.693,1162,1146.693,1167.5L1146.693,1173" id="L_RC2_RFNG_0" class="edge-thickness-thick edge-pattern-solid edge-thickness-normal edge-pattern-solid flowchart-link" style="stroke:#1e8449;stroke-width:3px;color:#12592f;fill:none;;;stroke:#1e8449;stroke-width:3px;color:#12592f;fill:none" data-edge="true" data-et="edge" data-id="L_RC2_RFNG_0" data-points="W3sieCI6MTE0Ny4xOTI3MTA4NzY0NjQ4LCJ5IjoxMDQzLjQ5OTk5OTk5OTk5OTV9LHsieCI6MTE0Ni42OTI3MTA4NzY0NjQ4LCJ5IjoxMTQwfSx7IngiOjExNDYuNjkyNzEwODc2NDY0OCwieSI6MTE3N31d" marker-end="url(#my-svg_flowchart-v2-pointEnd__1e8449)"/><path d="M1206.755,956.5L1231.546,938.25C1256.337,920,1305.919,883.5,1330.71,852.583C1355.501,821.667,1355.501,796.333,1355.501,771C1355.501,745.667,1355.501,720.333,1355.501,695C1355.501,669.667,1355.501,644.333,1355.501,615C1355.501,585.667,1355.501,552.333,1355.501,519C1355.501,485.667,1355.501,452.333,1355.501,425C1355.501,397.667,1355.501,376.333,1355.501,355C1355.501,333.667,1355.501,312.333,1355.501,291C1355.501,269.667,1355.501,248.333,1355.501,227C1355.501,205.667,1355.501,184.333,1355.501,163C1355.501,141.667,1355.501,120.333,1343.887,103.801C1332.272,87.268,1309.042,75.536,1297.427,69.669L1285.812,63.803" id="L_RC2_VR_0" class="edge-thickness-thick edge-pattern-solid edge-thickness-normal edge-pattern-solid flowchart-link" style="stroke:#1e8449;stroke-width:3px;color:#12592f;fill:none;;;stroke:#1e8449;stroke-width:3px;color:#12592f;fill:none" data-edge="true" data-et="edge" data-id="L_RC2_VR_0" data-points="W3sieCI6MTIwNi43NTQ1MDY0NzA3MjU2LCJ5Ijo5NTYuNTAwMDAwMDAwMDAxMX0seyJ4IjoxMzU1LjUwMTMwNDYyNjQ2NDgsInkiOjg0N30seyJ4IjoxMzU1LjUwMTMwNDYyNjQ2NDgsInkiOjc3MX0seyJ4IjoxMzU1LjUwMTMwNDYyNjQ2NDgsInkiOjY5NX0seyJ4IjoxMzU1LjUwMTMwNDYyNjQ2NDgsInkiOjYxOX0seyJ4IjoxMzU1LjUwMTMwNDYyNjQ2NDgsInkiOjUxOX0seyJ4IjoxMzU1LjUwMTMwNDYyNjQ2NDgsInkiOjQxOX0seyJ4IjoxMzU1LjUwMTMwNDYyNjQ2NDgsInkiOjM1NX0seyJ4IjoxMzU1LjUwMTMwNDYyNjQ2NDgsInkiOjI5MX0seyJ4IjoxMzU1LjUwMTMwNDYyNjQ2NDgsInkiOjIyN30seyJ4IjoxMzU1LjUwMTMwNDYyNjQ2NDgsInkiOjE2M30seyJ4IjoxMzU1LjUwMTMwNDYyNjQ2NDgsInkiOjk5fSx7IngiOjEyODIuMjQyMDI3MjgyNzE0OCwieSI6NjJ9XQ==" marker-end="url(#my-svg_flowchart-v2-pointEnd__1e8449)"/><path d="M1236.794,956.5L1274.131,938.25C1311.468,920,1386.141,883.5,1423.477,852.583C1460.814,821.667,1460.814,796.333,1460.814,771C1460.814,745.667,1460.814,720.333,1460.814,695C1460.814,669.667,1460.814,644.333,1460.814,615C1460.814,585.667,1460.814,552.333,1293.085,520.62C1125.357,488.906,789.899,458.812,622.171,443.765L454.442,428.718" id="L_RC2_ACL_0" class="edge-thickness-thick edge-pattern-solid edge-thickness-normal edge-pattern-solid flowchart-link" style="stroke:#1e8449;stroke-width:3px;color:#12592f;fill:none;;;stroke:#1e8449;stroke-width:3px;color:#12592f;fill:none" data-edge="true" data-et="edge" data-id="L_RC2_ACL_0" data-points="W3sieCI6MTIzNi43OTQ0NjU0ODcxMTksInkiOjk1Ni41MDAwMDAwMDAwMDExfSx7IngiOjE0NjAuODEzODA0NjI2NDY0OCwieSI6ODQ3fSx7IngiOjE0NjAuODEzODA0NjI2NDY0OCwieSI6NzcxfSx7IngiOjE0NjAuODEzODA0NjI2NDY0OCwieSI6Njk1fSx7IngiOjE0NjAuODEzODA0NjI2NDY0OCwieSI6NjE5fSx7IngiOjE0NjAuODEzODA0NjI2NDY0OCwieSI6NTE5fSx7IngiOjQ1MC40NTgzMzU4NzY0NjQ4NCwieSI6NDI4LjM2MDcwODk5MTcwNTN9XQ==" marker-end="url(#my-svg_flowchart-v2-pointEnd__1e8449)"/></g><g class="edgeLabels"><g class="edgeLabel" transform="translate(1161.4388046264648, 99)"><g class="label" data-id="L_VR_AC_0" transform="translate(-99.1171875, -12)"><foreignObject width="198.234375" height="24"><div xmlns="http://www.w3.org/1999/xhtml" class="labelBkg" style="display: table-cell; white-space: nowrap; line-height: 1.5; max-width: 200px; text-align: center;"><span class="edgeLabel"><p>CHECKIN_WINDOW_OPENED</p></span></div></foreignObject></g></g><g class="edgeLabel" transform="translate(830.8177108764648, 227)"><g class="label" data-id="L_AC_OE_0" transform="translate(-89.125, -12)"><foreignObject width="178.25" height="24"><div xmlns="http://www.w3.org/1999/xhtml" class="labelBkg" style="display: table-cell; white-space: nowrap; line-height: 1.5; max-width: 200px; text-align: center;"><span class="edgeLabel"><p>CHECKIN_TIME_REACHED</p></span></div></foreignObject></g></g><g class="edgeLabel" transform="translate(346.11458587646484, 355)"><g class="label" data-id="L_OE_ACL_0" transform="translate(-97.015625, -12)"><foreignObject width="194.03125" height="24"><div xmlns="http://www.w3.org/1999/xhtml" class="labelBkg" style="display: table-cell; white-space: nowrap; line-height: 1.5; max-width: 200px; text-align: center;"><span class="edgeLabel"><p>CHECKOUT_TIME_REACHED</p></span></div></foreignObject></g></g><g class="edgeLabel" transform="translate(78.4296875, 519)"><g class="label" data-id="L_ACL_CS_0" transform="translate(-70.4296875, -12)"><foreignObject width="140.859375" height="24"><div xmlns="http://www.w3.org/1999/xhtml" class="labelBkg" style="display: table-cell; white-space: nowrap; line-height: 1.5; max-width: 200px; text-align: center;"><span class="edgeLabel"><p>CLEANER_ASSIGNED</p></span></div></foreignObject></g></g><g class="edgeLabel" transform="translate(345.58203125, 695)"><g class="label" data-id="L_CS_CIP_0" transform="translate(-70.484375, -12)"><foreignObject width="140.96875" height="24"><div xmlns="http://www.w3.org/1999/xhtml" class="labelBkg" style="display: table-cell; white-space: nowrap; line-height: 1.5; max-width: 200px; text-align: center;"><span class="edgeLabel"><p>CLEANING_STARTED</p></span></div></foreignObject></g></g><g class="edgeLabel" transform="translate(240.6015625, 519)"><g class="label" data-id="L_CS_ACL_0" transform="translate(-71.7421875, -12)"><foreignObject width="143.484375" height="24"><div xmlns="http://www.w3.org/1999/xhtml" class="labelBkg" style="display: table-cell; white-space: nowrap; line-height: 1.5; max-width: 200px; text-align: center;"><span class="edgeLabel"><p>CLEANER_REJECTED</p></span></div></foreignObject></g></g><g class="edgeLabel" transform="translate(532.1575546264648, 519)"><g class="label" data-id="L_CS_ACL_2" transform="translate(-118.21875, -24)"><foreignObject width="236.4375" height="48"><div style="color: rgb(107, 107, 107) !important; display: table; white-space: break-spaces; line-height: 1.5; max-width: 200px; text-align: center; width: 200px;" xmlns="http://www.w3.org/1999/xhtml" class="labelBkg"><span style="color:#6b6b6b !important" class="edgeLabel"><p>CLEANING_ASSIGNMENT_EXPIRED<br />retirado: nunca tuvo emisor</p></span></div></foreignObject></g></g><g class="edgeLabel" transform="translate(770.3763046264648, 519)"><g class="label" data-id="L_CIP_OE_0" transform="translate(-100, -48)"><foreignObject width="200" height="96"><div style="color: rgb(123, 28, 20) !important; display: table; white-space: break-spaces; line-height: 1.5; max-width: 200px; text-align: center; width: 200px;" xmlns="http://www.w3.org/1999/xhtml" class="labelBkg"><span style="color:#7b1c14 !important" class="edgeLabel"><p>CHECKIN_TIME_REACHED — no existe en la matriz:<br />la vivienda no llega ni a ser candidata del job</p></span></div></foreignObject></g></g><g class="edgeLabel" transform="translate(538.1067733764648, 847)"><g class="label" data-id="L_CIP_RC1_0" transform="translate(-82.3671875, -12)"><foreignObject width="164.734375" height="24"><div style="color: rgb(123, 28, 20) !important; display: table-cell; white-space: nowrap; line-height: 1.5; max-width: 200px; text-align: center;" xmlns="http://www.w3.org/1999/xhtml" class="labelBkg"><span style="color:#7b1c14 !important" class="edgeLabel"><p>CLEANING_COMPLETED</p></span></div></foreignObject></g></g><g class="edgeLabel" transform="translate(229.10416412353516, 847)"><g class="label" data-id="L_CIP_MR_0" transform="translate(-55.5859375, -12)"><foreignObject width="111.171875" height="24"><div xmlns="http://www.w3.org/1999/xhtml" class="labelBkg" style="display: table-cell; white-space: nowrap; line-height: 1.5; max-width: 200px; text-align: center;"><span class="edgeLabel"><p>INCIDENT_HIGH</p></span></div></foreignObject></g></g><g class="edgeLabel" transform="translate(852.34476, 861.4744)"><g class="label" data-id="L_CIP_RC2_0" transform="translate(-100, -24)"><foreignObject width="200" height="48"><div style="color: rgb(18, 89, 47) !important; display: table; white-space: break-spaces; line-height: 1.5; max-width: 200px; text-align: center; width: 200px;" xmlns="http://www.w3.org/1999/xhtml" class="labelBkg"><span style="color:#12592f !important" class="edgeLabel"><p>CLEANING_CANCELLED (nuevo)</p></span></div></foreignObject></g></g><g class="edgeLabel" transform="translate(941.5598983764648, 771)"><g class="label" data-id="L_CS_RC2_0" transform="translate(-100, -24)"><foreignObject width="200" height="48"><div style="color: rgb(18, 89, 47) !important; display: table; white-space: break-spaces; line-height: 1.5; max-width: 200px; text-align: center; width: 200px;" xmlns="http://www.w3.org/1999/xhtml" class="labelBkg"><span style="color:#12592f !important" class="edgeLabel"><p>CLEANING_CANCELLED (nuevo)</p></span></div></foreignObject></g></g><g class="edgeLabel" transform="translate(1061.5598983764648, 695)"><g class="label" data-id="L_ACL_RC2_0" transform="translate(-100, -24)"><foreignObject width="200" height="48"><div style="color: rgb(18, 89, 47) !important; display: table; white-space: break-spaces; line-height: 1.5; max-width: 200px; text-align: center; width: 200px;" xmlns="http://www.w3.org/1999/xhtml" class="labelBkg"><span style="color:#12592f !important" class="edgeLabel"><p>CLEANING_CANCELLED (nuevo)</p></span></div></foreignObject></g></g><g class="edgeLabel" transform="translate(1181.5598983764648, 619)"><g class="label" data-id="L_RC2_OE_0" transform="translate(-53.9453125, -12)"><foreignObject width="107.890625" height="24"><div style="color: rgb(18, 89, 47) !important; display: table-cell; white-space: nowrap; line-height: 1.5; max-width: 200px; text-align: center;" xmlns="http://www.w3.org/1999/xhtml" class="labelBkg"><span style="color:#12592f !important" class="edgeLabel"><p>estancia activa</p></span></div></foreignObject></g></g><g class="edgeLabel" transform="translate(1255.5052108764648, 519)"><g class="label" data-id="L_RC2_AC_0" transform="translate(-45.3046875, -12)"><foreignObject width="90.609375" height="24"><div style="color: rgb(18, 89, 47) !important; display: table-cell; white-space: nowrap; line-height: 1.5; max-width: 200px; text-align: center;" xmlns="http://www.w3.org/1999/xhtml" class="labelBkg"><span style="color:#12592f !important" class="edgeLabel"><p>check-in hoy</p></span></div></foreignObject></g></g><g class="edgeLabel" transform="translate(1146.6927108764648, 1140)"><g class="label" data-id="L_RC2_RFNG_0" transform="translate(-61.1953125, -12)"><foreignObject width="122.390625" height="24"><div style="color: rgb(18, 89, 47) !important; display: table-cell; white-space: nowrap; line-height: 1.5; max-width: 200px; text-align: center;" xmlns="http://www.w3.org/1999/xhtml" class="labelBkg"><span style="color:#12592f !important" class="edgeLabel"><p>próxima estancia</p></span></div></foreignObject></g></g><g class="edgeLabel" transform="translate(1355.5013046264648, 419)"><g class="label" data-id="L_RC2_VR_0" transform="translate(-42.09375, -12)"><foreignObject width="84.1875" height="24"><div style="color: rgb(18, 89, 47) !important; display: table-cell; white-space: nowrap; line-height: 1.5; max-width: 200px; text-align: center;" xmlns="http://www.w3.org/1999/xhtml" class="labelBkg"><span style="color:#12592f !important" class="edgeLabel"><p>sin estancia</p></span></div></foreignObject></g></g><g class="edgeLabel" transform="translate(1460.8138046264648, 695)"><g class="label" data-id="L_RC2_ACL_0" transform="translate(-85.3125, -12)"><foreignObject width="170.625" height="24"><div style="color: rgb(18, 89, 47) !important; display: table-cell; white-space: nowrap; line-height: 1.5; max-width: 200px; text-align: center;" xmlns="http://www.w3.org/1999/xhtml" class="labelBkg"><span style="color:#12592f !important" class="edgeLabel"><p>con tarea de reemplazo</p></span></div></foreignObject></g></g></g><g class="nodes"><g class="node default state" id="flowchart-VR-0" transform="translate(1228.7825546264648, 35)"><rect class="basic label-container" style="fill:#eef2f7 !important;stroke:#5b6b7f !important;stroke-width:1px !important" x="-85.1796875" y="-27" width="170.359375" height="54"/><g class="label" style="color:#1f2a37 !important" transform="translate(-55.1796875, -12)"><rect/><foreignObject width="110.359375" height="24"><div style="color: rgb(31, 42, 55) !important; display: table-cell; white-space: nowrap; line-height: 1.5; max-width: 200px; text-align: center;" xmlns="http://www.w3.org/1999/xhtml"><span style="color:#1f2a37 !important" class="nodeLabel"><p>VACANT_READY</p></span></div></foreignObject></g></g><g class="node default state" id="flowchart-AC-1" transform="translate(1161.4388046264648, 163)"><rect class="basic label-container" style="fill:#eef2f7 !important;stroke:#5b6b7f !important;stroke-width:1px !important" x="-99.6875" y="-27" width="199.375" height="54"/><g class="label" style="color:#1f2a37 !important" transform="translate(-69.6875, -12)"><rect/><foreignObject width="139.375" height="24"><div style="color: rgb(31, 42, 55) !important; display: table-cell; white-space: nowrap; line-height: 1.5; max-width: 200px; text-align: center;" xmlns="http://www.w3.org/1999/xhtml"><span style="color:#1f2a37 !important" class="nodeLabel"><p>AWAITING_CHECKIN</p></span></div></foreignObject></g></g><g class="node default state" id="flowchart-OE-2" transform="translate(830.8177108764648, 291)"><rect class="basic label-container" style="fill:#eef2f7 !important;stroke:#5b6b7f !important;stroke-width:1px !important" x="-108.6796875" y="-27" width="217.359375" height="54"/><g class="label" style="color:#1f2a37 !important" transform="translate(-78.6796875, -12)"><rect/><foreignObject width="157.359375" height="24"><div style="color: rgb(31, 42, 55) !important; display: table-cell; white-space: nowrap; line-height: 1.5; max-width: 200px; text-align: center;" xmlns="http://www.w3.org/1999/xhtml"><span style="color:#1f2a37 !important" class="nodeLabel"><p>OCCUPIED_ESTIMATED</p></span></div></foreignObject></g></g><g class="node default state" id="flowchart-ACL-3" transform="translate(346.11458587646484, 419)"><rect class="basic label-container" style="fill:#eef2f7 !important;stroke:#5b6b7f !important;stroke-width:1px !important" x="-104.34375" y="-27" width="208.6875" height="54"/><g class="label" style="color:#1f2a37 !important" transform="translate(-74.34375, -12)"><rect/><foreignObject width="148.6875" height="24"><div style="color: rgb(31, 42, 55) !important; display: table-cell; white-space: nowrap; line-height: 1.5; max-width: 200px; text-align: center;" xmlns="http://www.w3.org/1999/xhtml"><span style="color:#1f2a37 !important" class="nodeLabel"><p>AWAITING_CLEANING</p></span></div></foreignObject></g></g><g class="node default state" id="flowchart-CS-4" transform="translate(345.58203125, 619)"><rect class="basic label-container" style="fill:#eef2f7 !important;stroke:#5b6b7f !important;stroke-width:1px !important" x="-111.375" y="-27" width="222.75" height="54"/><g class="label" style="color:#1f2a37 !important" transform="translate(-81.375, -12)"><rect/><foreignObject width="162.75" height="24"><div style="color: rgb(31, 42, 55) !important; display: table-cell; white-space: nowrap; line-height: 1.5; max-width: 200px; text-align: center;" xmlns="http://www.w3.org/1999/xhtml"><span style="color:#1f2a37 !important" class="nodeLabel"><p>CLEANING_SCHEDULED</p></span></div></foreignObject></g></g><g class="node default stuck" id="flowchart-CIP-5" transform="translate(537.9388046264648, 771)"><rect class="basic label-container" style="fill:#fde2e1 !important;stroke:#c0392b !important;stroke-width:3px !important" x="-117.96875" y="-27" width="235.9375" height="54"/><g class="label" style="color:#7b1c14 !important" transform="translate(-87.96875, -12)"><rect/><foreignObject width="175.9375" height="24"><div style="color: rgb(123, 28, 20) !important; display: table-cell; white-space: nowrap; line-height: 1.5; max-width: 200px; text-align: center;" xmlns="http://www.w3.org/1999/xhtml"><span style="color:#7b1c14 !important" class="nodeLabel"><p>CLEANING_IN_PROGRESS</p></span></div></foreignObject></g></g><g class="node default state" id="flowchart-RFNG-6" transform="translate(1146.6927108764648, 1204)"><rect class="basic label-container" style="fill:#eef2f7 !important;stroke:#5b6b7f !important;stroke-width:1px !important" x="-121.828125" y="-27" width="243.65625" height="54"/><g class="label" style="color:#1f2a37 !important" transform="translate(-91.828125, -12)"><rect/><foreignObject width="183.65625" height="24"><div style="color: rgb(31, 42, 55) !important; display: table-cell; white-space: nowrap; line-height: 1.5; max-width: 200px; text-align: center;" xmlns="http://www.w3.org/1999/xhtml"><span style="color:#1f2a37 !important" class="nodeLabel"><p>READY_FOR_NEXT_GUEST</p></span></div></foreignObject></g></g><g class="node default state" id="flowchart-MR-7" transform="translate(229.10416412353516, 999.5)"><rect class="basic label-container" style="fill:#eef2f7 !important;stroke:#5b6b7f !important;stroke-width:1px !important" x="-120.4609375" y="-27" width="240.921875" height="54"/><g class="label" style="color:#1f2a37 !important" transform="translate(-90.4609375, -12)"><rect/><foreignObject width="180.921875" height="24"><div style="color: rgb(31, 42, 55) !important; display: table-cell; white-space: nowrap; line-height: 1.5; max-width: 200px; text-align: center;" xmlns="http://www.w3.org/1999/xhtml"><span style="color:#1f2a37 !important" class="nodeLabel"><p>MAINTENANCE_REQUIRED</p></span></div></foreignObject></g></g><g class="node default blocked" id="flowchart-RC1-8" transform="translate(538.1067733764648, 999.5)"><g class="basic label-container"><path d="M-86.79166666666666 -103.5 C-69.31083587764996 -103.5, -51.83000508863326 -103.5, 0 -103.5 C32.76120025127469 -103.5, 65.52240050254937 -103.5, 86.79166666666666 -103.5 C99.85486041690494 -77.37361249952343, 112.91805416714323 -51.247224999046864, 138.54166666666666 0 C122.27178257555182 32.53976818222966, 106.00189848443699 65.07953636445932, 86.79166666666666 103.5 C63.145922480512446 103.5, 39.500178294358236 103.5, 0 103.5 C-20.191595705670025 103.5, -40.38319141134005 103.5, -86.79166666666666 103.5 C-106.50662433363713 64.07008466605905, -126.22158200060761 24.640169332118077, -138.54166666666666 0 C-121.41092418618076 -34.26148496097179, -104.28018170569487 -68.52296992194358, -86.79166666666666 -103.5" stroke="none" stroke-width="0" fill="#fff4e5" style="fill:#fff4e5 !important;stroke:#c0392b !important;stroke-width:2px !important"/><path d="M-86.79166666666666 -103.5 C-67.45769452400602 -103.5, -48.123722381345374 -103.5, 0 -103.5 M-86.79166666666666 -103.5 C-59.65975644317477 -103.5, -32.52784621968289 -103.5, 0 -103.5 M0 -103.5 C27.10157891335897 -103.5, 54.20315782671794 -103.5, 86.79166666666666 -103.5 M0 -103.5 C24.852160965741923 -103.5, 49.70432193148385 -103.5, 86.79166666666666 -103.5 M86.79166666666666 -103.5 C98.97511240938883 -79.13310851455567, 111.15855815211098 -54.76621702911134, 138.54166666666666 0 M86.79166666666666 -103.5 C106.20106270755652 -64.68120791822028, 125.61045874844638 -25.862415836440576, 138.54166666666666 0 M138.54166666666666 0 C126.75247540127432 23.57838253078465, 114.963284135882 47.1567650615693, 86.79166666666666 103.5 M138.54166666666666 0 C119.19489634971735 38.693540633898614, 99.84812603276805 77.38708126779723, 86.79166666666666 103.5 M86.79166666666666 103.5 C55.5454063244024 103.5, 24.299145982138143 103.5, 0 103.5 M86.79166666666666 103.5 C53.99827480530512 103.5, 21.204882943943588 103.5, 0 103.5 M0 103.5 C-26.516608429531097 103.5, -53.03321685906219 103.5, -86.79166666666666 103.5 M0 103.5 C-26.98589026707575 103.5, -53.9717805341515 103.5, -86.79166666666666 103.5 M-86.79166666666666 103.5 C-97.53131264963885 82.02070803405562, -108.27095863261104 60.54141606811122, -138.54166666666666 0 M-86.79166666666666 103.5 C-100.69743294884302 75.68846743564728, -114.60319923101937 47.87693487129456, -138.54166666666666 0 M-138.54166666666666 0 C-122.21367976608215 -32.655973801169026, -105.88569286549763 -65.31194760233805, -86.79166666666666 -103.5 M-138.54166666666666 0 C-126.77774719111528 -23.527838951102737, -115.01382771556392 -47.055677902205474, -86.79166666666666 -103.5" stroke="#c0392b" stroke-width="2" fill="none" stroke-dasharray="0 0" style="fill:#fff4e5 !important;stroke:#c0392b !important;stroke-width:2px !important"/></g><g class="label" style="color:#7b1c14 !important" transform="translate(-100, -96)"><rect/><foreignObject width="200" height="192"><div style="color: rgb(123, 28, 20) !important; display: table; white-space: break-spaces; line-height: 1.5; max-width: 200px; text-align: center; width: 200px;" xmlns="http://www.w3.org/1999/xhtml"><span style="color:#7b1c14 !important" class="nodeLabel"><p>after_cleaning_completion<br />se NIEGA con estancia activa → 409<br /><br />destinos si no la hay:<br />READY_FOR_NEXT_GUEST · AWAITING_CHECKIN · VACANT_READY</p></span></div></foreignObject></g></g><g class="node default exit" id="flowchart-RC2-9" transform="translate(1146.6927108764648, 999.5)"><g class="basic label-container"><path d="M-141.52864583333334 -43.5 C-85.85205941747493 -43.5, -30.175473001616524 -43.5, 0 -43.5 C51.42223702276495 -43.5, 102.8444740455299 -43.5, 141.52864583333334 -43.5 C149.45516857925045 -27.646954508165784, 157.38169132516757 -11.793909016331572, 163.27864583333334 0 C156.57762045614052 13.402050754385629, 149.8765950789477 26.804101508771257, 141.52864583333334 43.5 C90.01276484573557 43.5, 38.49688385813782 43.5, 0 43.5 C-30.70838929510256 43.5, -61.41677859020512 43.5, -141.52864583333334 43.5 C-149.07622589375936 28.404839879147943, -156.6238059541854 13.30967975829589, -163.27864583333334 0 C-157.1696667234555 -12.217958219755687, -151.06068761357767 -24.435916439511374, -141.52864583333334 -43.5" stroke="none" stroke-width="0" fill="#e3f7e8" style="fill:#e3f7e8 !important;stroke:#1e8449 !important;stroke-width:3px !important"/><path d="M-141.52864583333334 -43.5 C-103.8388124833726 -43.5, -66.14897913341186 -43.5, 0 -43.5 M-141.52864583333334 -43.5 C-85.06424769430774 -43.5, -28.599849555282148 -43.5, 0 -43.5 M0 -43.5 C32.064317487433264 -43.5, 64.12863497486653 -43.5, 141.52864583333334 -43.5 M0 -43.5 C39.831411063480694 -43.5, 79.66282212696139 -43.5, 141.52864583333334 -43.5 M141.52864583333334 -43.5 C149.51471652487749 -27.527858616911715, 157.50078721642163 -11.55571723382343, 163.27864583333334 0 M141.52864583333334 -43.5 C146.35022432014287 -33.856843026380915, 151.17180280695243 -24.213686052761837, 163.27864583333334 0 M163.27864583333334 0 C156.97537481747074 12.606542031725224, 150.67210380160813 25.21308406345045, 141.52864583333334 43.5 M163.27864583333334 0 C155.23805037517752 16.08119091631164, 147.1974549170217 32.16238183262328, 141.52864583333334 43.5 M141.52864583333334 43.5 C99.8415035015584 43.5, 58.154361169783485 43.5, 0 43.5 M141.52864583333334 43.5 C86.0739585655592 43.5, 30.619271297785062 43.5, 0 43.5 M0 43.5 C-33.03756806512644 43.5, -66.07513613025289 43.5, -141.52864583333334 43.5 M0 43.5 C-49.49725082258508 43.5, -98.99450164517016 43.5, -141.52864583333334 43.5 M-141.52864583333334 43.5 C-147.13477249970018 32.28774666726631, -152.74089916606704 21.07549333453262, -163.27864583333334 0 M-141.52864583333334 43.5 C-146.30689464562906 33.94350237540857, -151.08514345792477 24.387004750817137, -163.27864583333334 0 M-163.27864583333334 0 C-156.4934272269993 -13.570437212668088, -149.70820862066526 -27.140874425336175, -141.52864583333334 -43.5 M-163.27864583333334 0 C-156.3584501535886 -13.840391359489473, -149.43825447384387 -27.680782718978946, -141.52864583333334 -43.5" stroke="#1e8449" stroke-width="3" fill="none" stroke-dasharray="0 0" style="fill:#e3f7e8 !important;stroke:#1e8449 !important;stroke-width:3px !important"/></g><g class="label" style="color:#12592f !important" transform="translate(-121.203125, -36)"><rect/><foreignObject width="242.40625" height="72"><div style="color: rgb(18, 89, 47) !important; display: table; white-space: break-spaces; line-height: 1.5; max-width: 200px; text-align: center; width: 200px;" xmlns="http://www.w3.org/1999/xhtml"><span style="color:#12592f !important" class="nodeLabel"><p>after_cleaning_cancellation<br />delega en _contextual_reservation_cleaning</p></span></div></foreignObject></g></g></g></g><marker id="my-svg_flowchart-v2-pointEnd__8a8a8a" class="marker flowchart-v2" viewBox="0 0 10 10" refX="5" refY="5" markerUnits="userSpaceOnUse" markerWidth="8" markerHeight="8" orient="auto"><path d="M 0 0 L 10 5 L 0 10 z" class="arrowMarkerPath" style="stroke-width: 1; stroke-dasharray: 1, 0;" stroke="#8a8a8a" fill="#8a8a8a"/></marker><marker id="my-svg_flowchart-v2-pointEnd__c0392b" class="marker flowchart-v2" viewBox="0 0 10 10" refX="5" refY="5" markerUnits="userSpaceOnUse" markerWidth="8" markerHeight="8" orient="auto"><path d="M 0 0 L 10 5 L 0 10 z" class="arrowMarkerPath" style="stroke-width: 1; stroke-dasharray: 1, 0;" stroke="#c0392b" fill="#c0392b"/></marker><marker id="my-svg_flowchart-v2-pointEnd__1e8449" class="marker flowchart-v2" viewBox="0 0 10 10" refX="5" refY="5" markerUnits="userSpaceOnUse" markerWidth="8" markerHeight="8" orient="auto"><path d="M 0 0 L 10 5 L 0 10 z" class="arrowMarkerPath" style="stroke-width: 1; stroke-dasharray: 1, 0;" stroke="#1e8449" fill="#1e8449"/></marker></g><text text-anchor="middle" x="777.0631713867188" y="-25" class="flowchartTitleText">Limpieza sin cerrar: el nudo y su salida</text></svg>